<svg id="Layer_1" data-name="Layer 1" xmlns="http://www.w3.org/2000/svg" width="3in" height="0.4in" viewBox="0 0 218 28.3"><title>Artboard 1</title><rect x="0.3" y="1" width="217.1" height="26.11" rx="2.7" ry="2.7" fill="#fff" stroke="#aeadae" stroke-miterlimit="10" stroke-width="0.5"/><path d="M96.9,16.5a3.9,3.9,0,0,0,2,.6c1.2,0,1.8-.6,1.8-1.5s-.4-1.3-1.6-1.8-2.3-1.2-2.3-2.5S97.9,9,99.6,9a4.6,4.6,0,0,1,2,.4l-.4.9a3.5,3.5,0,0,0-1.6-.4c-1.2,0-1.7.7-1.7,1.3s.6,1.2,1.8,1.7,2.2,1.3,2.2,2.6-1,2.5-3.1,2.5a3.8,3.8,0,0,1-2.2-.6Z" fill="#aeadae"/><path d="M104.1,14.9a2,2,0,0,0,2.2,2.2,3.7,3.7,0,0,0,1.7-.3l.2.8a4.8,4.8,0,0,1-2.1.4,3,3,0,0,1-3.1-3.2c0-1.9,1.1-3.4,3-3.4s2.6,1.8,2.6,3a.7.7,0,0,1-.1.5Zm3.4-.8a1.6,1.6,0,0,0-1.6-1.8,1.9,1.9,0,0,0-1.8,1.8Z" fill="#aeadae"/><path d="M113.5,17.9v-.8h0a2.5,2.5,0,0,1-2,.9,1.8,1.8,0,0,1-1.9-1.8c0-1.5,1.4-2.3,3.8-2.3v-.2a1.3,1.3,0,0,0-1.4-1.4,4.7,4.7,0,0,0-1.7.4L110,12a3.9,3.9,0,0,1,2-.6c2,0,2.4,1.3,2.4,2.6v2.4a7.6,7.6,0,0,0,.1,1.5Zm-.2-3.2c-1.2-.1-2.6.2-2.6,1.4a1,1,0,0,0,1,1.1,1.8,1.8,0,0,0,1.6-1.1V14.7Z" fill="#aeadae"/><path d="M116.3,13.5a11.5,11.5,0,0,0-.1-1.9h1v1.2h0a2,2,0,0,1,1.7-1.4h.4v1.1H119a1.7,1.7,0,0,0-1.6,1.5v3.9h-1.1Z" fill="#aeadae"/><path d="M124.9,17.6a3.7,3.7,0,0,1-1.8.4,3,3,0,0,1-3.2-3.2,3.3,3.3,0,0,1,3.4-3.4,3.1,3.1,0,0,1,1.6.4l-.3.9a2.1,2.1,0,0,0-1.3-.3,2.1,2.1,0,0,0-2.2,2.3,2.2,2.2,0,0,0,2.2,2.4,4.2,4.2,0,0,0,1.4-.3Z" fill="#aeadae"/><path d="M126.2,8.6h1.2v4h0a1.6,1.6,0,0,1,.8-.8,2.1,2.1,0,0,1,1.2-.4c.8,0,2.2.6,2.2,2.7v3.8h-1.2V14.3c0-1.1-.4-1.9-1.4-1.9a1.7,1.7,0,0,0-1.6,1.1v4.4h-1.2Z" fill="#aeadae"/><circle cx="82.3" cy="11.9" r="3" fill="none" stroke="#aeadae" stroke-miterlimit="10"/><line x1="83.5" y1="14.6" x2="85.7" y2="17.9" fill="none" stroke="#aeadae" stroke-miterlimit="10"/></svg>